<?xml version="1.0" encoding="utf-8"?>
<svg id="layout001" xmlns="http://www.w3.org/2000/svg" viewBox="-120 122 14 14"><style>.st0{fill:#FFFFFF;}</style><title>Oval 104 + Rectangle 248</title><g id="Page-1"><g id="Oval-104-_x2B_-Rectangle-248"><path class="st0" d="M-113 135.5c-3.6 0-6.5-2.9-6.5-6.5 0-3.1 2.2-5.8 5.2-6.4.2-.1.5.1.5.4 0 .2-.1.5-.4.5-2.6.5-4.4 2.8-4.4 5.5 0 3.1 2.5 5.6 5.5 5.6 1.1 0 2.2-.3 3.1-.9.2-.1.5-.1.6.1s.1.5-.1.6c-1 .7-2.2 1.1-3.5 1.1zm5-2.8c-.1 0-.2 0-.2-.1-.2-.1-.3-.4-.1-.6.6-.9.9-2 .9-3.1 0-2.7-1.9-5-4.4-5.5-.2 0-.4-.3-.4-.5s.3-.4.5-.4c3 .6 5.2 3.3 5.2 6.4 0 1.3-.4 2.5-1.1 3.6-.1.2-.2.2-.4.2z" id="Oval-104"/><path class="st0" d="M-110.1 132.5c-.1 0-.2 0-.3-.1l-3-3.2V125c0-.2.2-.5.5-.5s.5.2.5.5v3.8l2.7 2.9c.2.2.2.5 0 .6-.2.2-.3.2-.4.2z" id="Rectangle-248"/></g></g></svg>
