<?xml version="1.0" encoding="UTF-8" standalone="no"?>
<svg width="14" height="15" viewBox="0 0 14 15" xmlns="http://www.w3.org/2000/svg"><title>Fill 1 Copy + Path 1375 + Path 1374</title><g fill="#FF567A" fill-rule="evenodd"><path d="M12.155 6.358c.383 0 .718.307.718.657v6.27c0 .317-.307.673-.718.673h-.432c-.34 0-.72-.288-.72-.674v-6.27c0-.343.343-.656.72-.656h.432zm-.432 8.632h.432c.463 0 .903-.182 1.24-.512.33-.323.52-.76.52-1.194v-6.27c0-.437-.19-.87-.52-1.19-.336-.32-.776-.498-1.24-.498h-.432c-.954 0-1.76.773-1.76 1.69v6.268c0 .924.806 1.706 1.76 1.706zm-3.24-8.683v6.22c0 .87-.178 1.18-.283 1.285-.095.097-.23.13-.517.13-.67 0-1.298.005-1.854.01-.47.003-.915.006-1.313.006-.15 0-.302.002-.45.005-.147.002-.3.005-.446.005-.427 0-.915-.02-1.296-.164-.356-.134-.58-.357-.726-.722-.237-.595-.442-1.865-.523-3.235-.09-1.53.013-2.528.147-2.81.195-.41.463-.684 1.134-.684H6.82l-.602-.82c-.006-.008-.678-.938-.932-2.09-.215-.973-.158-1.874.142-2.244.096-.118.206-.168.37-.168.672 0 .892.545 1.235 1.79.105.385.215.784.366 1.153.52 1.27.925 2.045 1.082 2.332zM3.62 15c.157 0 .314-.003.465-.005.15-.003.292-.005.432-.005.402 0 .848-.003 1.32-.007.554-.004 1.18-.008 1.846-.008.247 0 .826 0 1.26-.44.396-.4.58-1.038.58-2.01v-6.49l-.07-.12c-.004-.008-.462-.796-1.09-2.328-.126-.31-.227-.68-.326-1.037-.157-.572-.32-1.164-.614-1.633C7.043.31 6.493 0 5.797 0c-.478 0-.886.19-1.18.552-.28.345-.445.83-.49 1.443-.036.507.012 1.084.14 1.67.144.644.39 1.222.615 1.657H2.356c-.99 0-1.668.417-2.077 1.275-.353.742-.29 2.562-.245 3.31.07 1.17.26 2.718.595 3.554.25.632.696 1.072 1.323 1.31.54.203 1.145.23 1.668.23z"/><path d="M11.442 6.07l-.673.752.077 6.864.87.816 1.17-.132.474-1.092-.022-6.885-1.08-.54-.816.218zM9.17 7.28c1.21 0-2.22-5.823-2.22-5.823L5.865.613 4.834 1.66s.425 2.59.425 2.776c0 .187.604 1.28.604 1.28H3.466S.764 6.533.764 6.72c0 .187-.313 2.997-.313 2.997l.512 2.768 1.248 1.693h.667l1.59.422h3.487l.45-.618s.767-.343.767-1.1v-5.6z"/></g></svg>